<mxfile host="app.diagrams.net" modified="2023-04-12T18:55:05.113Z" agent="Mozilla/5.0 (Windows NT 10.0; Win64; x64; rv:109.0) Gecko/20100101 Firefox/111.0" etag="HnGSkbLkC9igRjNQW6_C" version="21.1.7">
  <diagram name="Seite-1" id="xDPhW_sjdd-Zu5dx5Klj">
    <mxGraphModel dx="2074" dy="1114" grid="1" gridSize="10" guides="1" tooltips="1" connect="1" arrows="1" fold="1" page="1" pageScale="1" pageWidth="827" pageHeight="1169" math="0" shadow="0">
      <root>
        <mxCell id="0" />
        <mxCell id="1" parent="0" />
        <mxCell id="a-vMdIZ63alBC-uYgrp5-48" value="&lt;div&gt;1&lt;/div&gt;&lt;div&gt;&lt;br&gt;&lt;/div&gt;&lt;div&gt;&lt;br&gt;&lt;/div&gt;&lt;div&gt;&lt;br&gt;&lt;/div&gt;&lt;div&gt;&lt;br&gt;&lt;/div&gt;&lt;div&gt;&lt;br&gt;&lt;/div&gt;&lt;div&gt;&lt;br&gt;&lt;/div&gt;&lt;div&gt;n&lt;br&gt;&lt;/div&gt;" style="edgeStyle=orthogonalEdgeStyle;rounded=0;orthogonalLoop=1;jettySize=auto;html=1;endArrow=none;endFill=0;labelPosition=left;verticalLabelPosition=middle;align=right;verticalAlign=middle;" edge="1" parent="1" source="a-vMdIZ63alBC-uYgrp5-8" target="a-vMdIZ63alBC-uYgrp5-12">
          <mxGeometry relative="1" as="geometry" />
        </mxCell>
        <mxCell id="a-vMdIZ63alBC-uYgrp5-8" value="Sport" style="swimlane;fontStyle=1;align=center;verticalAlign=top;childLayout=stackLayout;horizontal=1;startSize=26;horizontalStack=0;resizeParent=1;resizeParentMax=0;resizeLast=0;collapsible=1;marginBottom=0;whiteSpace=wrap;html=1;" vertex="1" parent="1">
          <mxGeometry x="310" y="20" width="190" height="190" as="geometry">
            <mxRectangle x="310" y="30" width="90" height="30" as="alternateBounds" />
          </mxGeometry>
        </mxCell>
        <mxCell id="a-vMdIZ63alBC-uYgrp5-9" value="&lt;div&gt;- id: int&lt;br&gt;&lt;/div&gt;&lt;div&gt;- name: String&lt;/div&gt;&lt;div&gt;&lt;div&gt;- factor: float&lt;br&gt;&lt;/div&gt;&lt;/div&gt;" style="text;strokeColor=none;fillColor=none;align=left;verticalAlign=top;spacingLeft=4;spacingRight=4;overflow=hidden;rotatable=0;points=[[0,0.5],[1,0.5]];portConstraint=eastwest;whiteSpace=wrap;html=1;" vertex="1" parent="a-vMdIZ63alBC-uYgrp5-8">
          <mxGeometry y="26" width="190" height="54" as="geometry" />
        </mxCell>
        <mxCell id="a-vMdIZ63alBC-uYgrp5-10" value="" style="line;strokeWidth=1;fillColor=none;align=left;verticalAlign=middle;spacingTop=-1;spacingLeft=3;spacingRight=3;rotatable=0;labelPosition=right;points=[];portConstraint=eastwest;strokeColor=inherit;" vertex="1" parent="a-vMdIZ63alBC-uYgrp5-8">
          <mxGeometry y="80" width="190" height="8" as="geometry" />
        </mxCell>
        <mxCell id="a-vMdIZ63alBC-uYgrp5-11" value="&lt;div&gt;+ getId(void): int&lt;br&gt;&lt;/div&gt;&lt;div&gt;+ getName(void): String&lt;/div&gt;&lt;div&gt;+ getFactor(void): float&lt;/div&gt;&lt;div&gt;+ setId(int): void&lt;br&gt;&lt;/div&gt;&lt;div&gt;+ setName(String): void&lt;/div&gt;&lt;div&gt;+ setFactor(float): void&lt;br&gt;&lt;/div&gt;" style="text;strokeColor=none;fillColor=none;align=left;verticalAlign=top;spacingLeft=4;spacingRight=4;overflow=hidden;rotatable=0;points=[[0,0.5],[1,0.5]];portConstraint=eastwest;whiteSpace=wrap;html=1;" vertex="1" parent="a-vMdIZ63alBC-uYgrp5-8">
          <mxGeometry y="88" width="190" height="102" as="geometry" />
        </mxCell>
        <mxCell id="a-vMdIZ63alBC-uYgrp5-12" value="Challenge Sport" style="swimlane;fontStyle=1;align=center;verticalAlign=top;childLayout=stackLayout;horizontal=1;startSize=26;horizontalStack=0;resizeParent=1;resizeParentMax=0;resizeLast=0;collapsible=1;marginBottom=0;whiteSpace=wrap;html=1;" vertex="1" parent="1">
          <mxGeometry x="310" y="330" width="190" height="190" as="geometry" />
        </mxCell>
        <mxCell id="a-vMdIZ63alBC-uYgrp5-13" value="&lt;div&gt;- id: int&lt;/div&gt;&lt;div&gt;- challengeID: int&lt;/div&gt;&lt;div&gt;- sportID: int&lt;br&gt;&lt;/div&gt;" style="text;strokeColor=none;fillColor=none;align=left;verticalAlign=top;spacingLeft=4;spacingRight=4;overflow=hidden;rotatable=0;points=[[0,0.5],[1,0.5]];portConstraint=eastwest;whiteSpace=wrap;html=1;" vertex="1" parent="a-vMdIZ63alBC-uYgrp5-12">
          <mxGeometry y="26" width="190" height="54" as="geometry" />
        </mxCell>
        <mxCell id="a-vMdIZ63alBC-uYgrp5-14" value="" style="line;strokeWidth=1;fillColor=none;align=left;verticalAlign=middle;spacingTop=-1;spacingLeft=3;spacingRight=3;rotatable=0;labelPosition=right;points=[];portConstraint=eastwest;strokeColor=inherit;" vertex="1" parent="a-vMdIZ63alBC-uYgrp5-12">
          <mxGeometry y="80" width="190" height="8" as="geometry" />
        </mxCell>
        <mxCell id="a-vMdIZ63alBC-uYgrp5-15" value="&lt;div&gt;+ getId(void): int&lt;/div&gt;&lt;div&gt;+ getChallengeID(void): int&lt;/div&gt;&lt;div&gt;+ getSportID(void): int&lt;/div&gt;&lt;div&gt;+ setId(int): void&lt;/div&gt;&lt;div&gt;+ setChallengeID(int): void&lt;/div&gt;&lt;div&gt;+ setSportID(int): void&lt;br&gt;&lt;/div&gt;" style="text;strokeColor=none;fillColor=none;align=left;verticalAlign=top;spacingLeft=4;spacingRight=4;overflow=hidden;rotatable=0;points=[[0,0.5],[1,0.5]];portConstraint=eastwest;whiteSpace=wrap;html=1;" vertex="1" parent="a-vMdIZ63alBC-uYgrp5-12">
          <mxGeometry y="88" width="190" height="102" as="geometry" />
        </mxCell>
        <mxCell id="a-vMdIZ63alBC-uYgrp5-16" value="Bonus" style="swimlane;fontStyle=1;align=center;verticalAlign=top;childLayout=stackLayout;horizontal=1;startSize=26;horizontalStack=0;resizeParent=1;resizeParentMax=0;resizeLast=0;collapsible=1;marginBottom=0;whiteSpace=wrap;html=1;" vertex="1" parent="1">
          <mxGeometry x="580" y="210" width="190" height="400" as="geometry" />
        </mxCell>
        <mxCell id="a-vMdIZ63alBC-uYgrp5-17" value="&lt;div&gt;- id: int&lt;/div&gt;&lt;div&gt;- sportChallengeID: int&lt;/div&gt;&lt;div&gt;- startDate: Date&lt;/div&gt;&lt;div&gt;- endDate: Date&lt;/div&gt;&lt;div&gt;- factor: float&lt;/div&gt;&lt;div&gt;- name: String&lt;/div&gt;&lt;div&gt;- desc: String&lt;br&gt;&lt;/div&gt;" style="text;strokeColor=none;fillColor=none;align=left;verticalAlign=top;spacingLeft=4;spacingRight=4;overflow=hidden;rotatable=0;points=[[0,0.5],[1,0.5]];portConstraint=eastwest;whiteSpace=wrap;html=1;" vertex="1" parent="a-vMdIZ63alBC-uYgrp5-16">
          <mxGeometry y="26" width="190" height="114" as="geometry" />
        </mxCell>
        <mxCell id="a-vMdIZ63alBC-uYgrp5-18" value="" style="line;strokeWidth=1;fillColor=none;align=left;verticalAlign=middle;spacingTop=-1;spacingLeft=3;spacingRight=3;rotatable=0;labelPosition=right;points=[];portConstraint=eastwest;strokeColor=inherit;" vertex="1" parent="a-vMdIZ63alBC-uYgrp5-16">
          <mxGeometry y="140" width="190" height="8" as="geometry" />
        </mxCell>
        <mxCell id="a-vMdIZ63alBC-uYgrp5-19" value="&lt;div&gt;&lt;div&gt;+ getId(void): int&lt;br&gt;&lt;/div&gt;&lt;div&gt;+ getName(void): String&lt;/div&gt;&lt;div&gt;+ getDesc(void): String&lt;/div&gt;&lt;div&gt;+ getStartDate(void): Date&lt;/div&gt;&lt;div&gt;+ getEndDate(void): Date&lt;/div&gt;&lt;div&gt;+ getSportChallengeID(void): int&lt;br&gt;&lt;/div&gt;&lt;div&gt;+ getFactor(int): float&lt;br&gt;&lt;/div&gt;&lt;div&gt;+ setId(int): void&lt;br&gt;&lt;/div&gt;&lt;div&gt;+ setName(String): void&lt;/div&gt;&lt;div&gt;+ setDesc(String): void&lt;/div&gt;&lt;div&gt;+ setStartDate(Date): void&lt;/div&gt;&lt;div&gt;+ setEndDate(Date): void&lt;/div&gt;&lt;div&gt;+ setSportChallengeID(int): void&lt;br&gt;&lt;/div&gt;&lt;div&gt;+ setFactor(float): void&lt;br&gt;&lt;/div&gt;&lt;/div&gt;" style="text;strokeColor=none;fillColor=none;align=left;verticalAlign=top;spacingLeft=4;spacingRight=4;overflow=hidden;rotatable=0;points=[[0,0.5],[1,0.5]];portConstraint=eastwest;whiteSpace=wrap;html=1;" vertex="1" parent="a-vMdIZ63alBC-uYgrp5-16">
          <mxGeometry y="148" width="190" height="252" as="geometry" />
        </mxCell>
        <mxCell id="a-vMdIZ63alBC-uYgrp5-50" value="&lt;div&gt;1&lt;/div&gt;&lt;div&gt;&lt;br&gt;&lt;/div&gt;&lt;div&gt;n&lt;br&gt;&lt;/div&gt;" style="edgeStyle=orthogonalEdgeStyle;rounded=0;orthogonalLoop=1;jettySize=auto;html=1;entryX=0.5;entryY=0;entryDx=0;entryDy=0;endArrow=none;endFill=0;labelPosition=left;verticalLabelPosition=middle;align=right;verticalAlign=middle;" edge="1" parent="1" source="a-vMdIZ63alBC-uYgrp5-20" target="a-vMdIZ63alBC-uYgrp5-24">
          <mxGeometry relative="1" as="geometry" />
        </mxCell>
        <mxCell id="a-vMdIZ63alBC-uYgrp5-20" value="&lt;div&gt;Challenge&lt;/div&gt;&lt;div&gt;&lt;br&gt;&lt;/div&gt;" style="swimlane;fontStyle=1;align=center;verticalAlign=top;childLayout=stackLayout;horizontal=1;startSize=26;horizontalStack=0;resizeParent=1;resizeParentMax=0;resizeLast=0;collapsible=1;marginBottom=0;whiteSpace=wrap;html=1;" vertex="1" parent="1">
          <mxGeometry x="40" y="210" width="190" height="530" as="geometry" />
        </mxCell>
        <mxCell id="a-vMdIZ63alBC-uYgrp5-21" value="&lt;div&gt;- id: int&lt;br&gt;&lt;/div&gt;&lt;div&gt;- name: String&lt;/div&gt;&lt;div&gt;- desc: String&lt;/div&gt;&lt;div&gt;- startDate: Date&lt;/div&gt;&lt;div&gt;- endDate: Date&lt;/div&gt;&lt;div&gt;- pic: Picture&lt;/div&gt;&lt;div&gt;- targetDistance: float&lt;br&gt;&lt;/div&gt;" style="text;strokeColor=none;fillColor=none;align=left;verticalAlign=top;spacingLeft=4;spacingRight=4;overflow=hidden;rotatable=0;points=[[0,0.5],[1,0.5]];portConstraint=eastwest;whiteSpace=wrap;html=1;" vertex="1" parent="a-vMdIZ63alBC-uYgrp5-20">
          <mxGeometry y="26" width="190" height="114" as="geometry" />
        </mxCell>
        <mxCell id="a-vMdIZ63alBC-uYgrp5-22" value="" style="line;strokeWidth=1;fillColor=none;align=left;verticalAlign=middle;spacingTop=-1;spacingLeft=3;spacingRight=3;rotatable=0;labelPosition=right;points=[];portConstraint=eastwest;strokeColor=inherit;" vertex="1" parent="a-vMdIZ63alBC-uYgrp5-20">
          <mxGeometry y="140" width="190" height="8" as="geometry" />
        </mxCell>
        <mxCell id="a-vMdIZ63alBC-uYgrp5-23" value="&lt;div&gt;&lt;div&gt;+ getId(void): int&lt;br&gt;&lt;/div&gt;&lt;div&gt;+ getName(void): String&lt;/div&gt;&lt;div&gt;+ getDesc(void): String&lt;/div&gt;&lt;div&gt;+ getStartDate(void): Date&lt;/div&gt;&lt;div&gt;+ getEndDate(void): Date&lt;/div&gt;&lt;div&gt;+ getPic(void): Picture&lt;/div&gt;&lt;div&gt;+ getTargetDistance(void): float&lt;br&gt;&lt;/div&gt;&lt;div&gt;+ setId(int): void&lt;br&gt;&lt;/div&gt;&lt;div&gt;+ setName(String): void&lt;/div&gt;&lt;div&gt;+ setDesc(String): void&lt;/div&gt;&lt;div&gt;+ setStartDate(Date): void&lt;/div&gt;&lt;div&gt;+ setEndDate(Date): void&lt;/div&gt;&lt;div&gt;+ setPic(Picture): void&lt;/div&gt;&lt;div&gt;+ setTargetDistance(float): void&lt;br&gt;&lt;/div&gt;&lt;/div&gt;" style="text;strokeColor=none;fillColor=none;align=left;verticalAlign=top;spacingLeft=4;spacingRight=4;overflow=hidden;rotatable=0;points=[[0,0.5],[1,0.5]];portConstraint=eastwest;whiteSpace=wrap;html=1;" vertex="1" parent="a-vMdIZ63alBC-uYgrp5-20">
          <mxGeometry y="148" width="190" height="242" as="geometry" />
        </mxCell>
        <mxCell id="a-vMdIZ63alBC-uYgrp5-40" value="" style="line;strokeWidth=1;fillColor=none;align=left;verticalAlign=middle;spacingTop=-1;spacingLeft=3;spacingRight=3;rotatable=0;labelPosition=right;points=[];portConstraint=eastwest;strokeColor=inherit;" vertex="1" parent="a-vMdIZ63alBC-uYgrp5-20">
          <mxGeometry y="390" width="190" height="8" as="geometry" />
        </mxCell>
        <mxCell id="a-vMdIZ63alBC-uYgrp5-42" value="&lt;div&gt;- calculateAllDistance(void): float&lt;/div&gt;&lt;div&gt;+ calculateUserDistance(int): float&lt;/div&gt;&lt;div&gt;+ calculateTeamDistance(int): float&lt;br&gt;&lt;/div&gt;" style="text;strokeColor=none;fillColor=none;align=left;verticalAlign=top;spacingLeft=4;spacingRight=4;overflow=hidden;rotatable=0;points=[[0,0.5],[1,0.5]];portConstraint=eastwest;whiteSpace=wrap;html=1;" vertex="1" parent="a-vMdIZ63alBC-uYgrp5-20">
          <mxGeometry y="398" width="190" height="132" as="geometry" />
        </mxCell>
        <mxCell id="a-vMdIZ63alBC-uYgrp5-24" value="Team" style="swimlane;fontStyle=1;align=center;verticalAlign=top;childLayout=stackLayout;horizontal=1;startSize=26;horizontalStack=0;resizeParent=1;resizeParentMax=0;resizeLast=0;collapsible=1;marginBottom=0;whiteSpace=wrap;html=1;" vertex="1" parent="1">
          <mxGeometry x="40" y="790" width="190" height="300" as="geometry" />
        </mxCell>
        <mxCell id="a-vMdIZ63alBC-uYgrp5-25" value="&lt;div&gt;- id: int&lt;br&gt;&lt;/div&gt;&lt;div&gt;- name: String&lt;/div&gt;&lt;div&gt;- pic: Picture&lt;/div&gt;&lt;div&gt;- members: HashMap&amp;lt;int&amp;gt;&lt;/div&gt;&lt;div&gt;- challengeID: int&lt;/div&gt;&lt;div&gt;&lt;br&gt;&lt;/div&gt;" style="text;strokeColor=none;fillColor=none;align=left;verticalAlign=top;spacingLeft=4;spacingRight=4;overflow=hidden;rotatable=0;points=[[0,0.5],[1,0.5]];portConstraint=eastwest;whiteSpace=wrap;html=1;" vertex="1" parent="a-vMdIZ63alBC-uYgrp5-24">
          <mxGeometry y="26" width="190" height="74" as="geometry" />
        </mxCell>
        <mxCell id="a-vMdIZ63alBC-uYgrp5-26" value="" style="line;strokeWidth=1;fillColor=none;align=left;verticalAlign=middle;spacingTop=-1;spacingLeft=3;spacingRight=3;rotatable=0;labelPosition=right;points=[];portConstraint=eastwest;strokeColor=inherit;" vertex="1" parent="a-vMdIZ63alBC-uYgrp5-24">
          <mxGeometry y="100" width="190" height="8" as="geometry" />
        </mxCell>
        <mxCell id="a-vMdIZ63alBC-uYgrp5-27" value="&lt;div&gt;+ getId(void): id&lt;br&gt;&lt;/div&gt;&lt;div&gt;+ getName(void): String&lt;/div&gt;&lt;div&gt;+ getPic(void): Picture&lt;/div&gt;&lt;div&gt;+ getMembers(void): HashMap&amp;lt;int&amp;gt;&lt;/div&gt;&lt;div&gt;+ getChallengeID(void): int&lt;/div&gt;&lt;div&gt;+ setId(Int): void&lt;br&gt;&lt;/div&gt;&lt;div&gt;+ setName(String): void&lt;/div&gt;&lt;div&gt;+ setPic(Picture): void&lt;/div&gt;&lt;div&gt;+ addMember(int): void&lt;/div&gt;&lt;div&gt;+ removeMember(int): void&lt;/div&gt;&lt;div&gt;+ setChallengeID(int): void&lt;br&gt;&lt;/div&gt;&lt;div&gt;&lt;br&gt;&lt;/div&gt;" style="text;strokeColor=none;fillColor=none;align=left;verticalAlign=top;spacingLeft=4;spacingRight=4;overflow=hidden;rotatable=0;points=[[0,0.5],[1,0.5]];portConstraint=eastwest;whiteSpace=wrap;html=1;" vertex="1" parent="a-vMdIZ63alBC-uYgrp5-24">
          <mxGeometry y="108" width="190" height="192" as="geometry" />
        </mxCell>
        <mxCell id="a-vMdIZ63alBC-uYgrp5-28" value="User" style="swimlane;fontStyle=1;align=center;verticalAlign=top;childLayout=stackLayout;horizontal=1;startSize=26;horizontalStack=0;resizeParent=1;resizeParentMax=0;resizeLast=0;collapsible=1;marginBottom=0;whiteSpace=wrap;html=1;" vertex="1" parent="1">
          <mxGeometry x="310" y="790" width="190" height="230" as="geometry" />
        </mxCell>
        <mxCell id="a-vMdIZ63alBC-uYgrp5-29" value="&lt;div&gt;- id: int&lt;br&gt;&lt;/div&gt;&lt;div&gt;- name: String&lt;/div&gt;&lt;div&gt;- motto: String&lt;/div&gt;&lt;div&gt;- pic: Picture&lt;/div&gt;" style="text;strokeColor=none;fillColor=none;align=left;verticalAlign=top;spacingLeft=4;spacingRight=4;overflow=hidden;rotatable=0;points=[[0,0.5],[1,0.5]];portConstraint=eastwest;whiteSpace=wrap;html=1;" vertex="1" parent="a-vMdIZ63alBC-uYgrp5-28">
          <mxGeometry y="26" width="190" height="64" as="geometry" />
        </mxCell>
        <mxCell id="a-vMdIZ63alBC-uYgrp5-30" value="" style="line;strokeWidth=1;fillColor=none;align=left;verticalAlign=middle;spacingTop=-1;spacingLeft=3;spacingRight=3;rotatable=0;labelPosition=right;points=[];portConstraint=eastwest;strokeColor=inherit;" vertex="1" parent="a-vMdIZ63alBC-uYgrp5-28">
          <mxGeometry y="90" width="190" height="8" as="geometry" />
        </mxCell>
        <mxCell id="a-vMdIZ63alBC-uYgrp5-31" value="&lt;div&gt;+ getId(void): id&lt;br&gt;&lt;/div&gt;&lt;div&gt;+ getName(void): String&lt;/div&gt;&lt;div&gt;+ getMotto(void): String&lt;br&gt;&lt;/div&gt;&lt;div&gt;+ getPic(void): Picture&lt;/div&gt;&lt;div&gt;+ setId(Int): void&lt;br&gt;&lt;/div&gt;&lt;div&gt;+ setName(String): void&lt;/div&gt;&lt;div&gt;+ setMotto(String): void&lt;br&gt;&lt;/div&gt;&lt;div&gt;+ setPic(Picture): void&lt;/div&gt;&lt;div&gt;&lt;br&gt;&lt;br&gt;&lt;/div&gt;" style="text;strokeColor=none;fillColor=none;align=left;verticalAlign=top;spacingLeft=4;spacingRight=4;overflow=hidden;rotatable=0;points=[[0,0.5],[1,0.5]];portConstraint=eastwest;whiteSpace=wrap;html=1;" vertex="1" parent="a-vMdIZ63alBC-uYgrp5-28">
          <mxGeometry y="98" width="190" height="132" as="geometry" />
        </mxCell>
        <mxCell id="a-vMdIZ63alBC-uYgrp5-54" value="1&amp;nbsp;&amp;nbsp;&amp;nbsp;&amp;nbsp;&amp;nbsp;&amp;nbsp;&amp;nbsp;&amp;nbsp;&amp;nbsp;&amp;nbsp;&amp;nbsp;&amp;nbsp;&amp;nbsp;&amp;nbsp;&amp;nbsp;&amp;nbsp;&amp;nbsp;&amp;nbsp;&amp;nbsp;&amp;nbsp;&amp;nbsp;&amp;nbsp;&amp;nbsp;&amp;nbsp;&amp;nbsp;&amp;nbsp;&amp;nbsp;&amp;nbsp;&amp;nbsp;&amp;nbsp;&amp;nbsp;&amp;nbsp;&amp;nbsp;&amp;nbsp;&amp;nbsp;&amp;nbsp;&amp;nbsp;&amp;nbsp;&amp;nbsp;&amp;nbsp;&amp;nbsp;&amp;nbsp;&amp;nbsp;&amp;nbsp;&amp;nbsp;&amp;nbsp;&amp;nbsp;&amp;nbsp;&amp;nbsp;&amp;nbsp;&amp;nbsp;&amp;nbsp;&amp;nbsp;&amp;nbsp;&amp;nbsp;&amp;nbsp;&amp;nbsp;&amp;nbsp;&amp;nbsp;&amp;nbsp;&amp;nbsp;&amp;nbsp;&amp;nbsp;&amp;nbsp;&amp;nbsp;&amp;nbsp;&amp;nbsp;&amp;nbsp;&amp;nbsp;&amp;nbsp;&amp;nbsp;&amp;nbsp;&amp;nbsp;&amp;nbsp;&amp;nbsp;&amp;nbsp;&amp;nbsp;&amp;nbsp;&amp;nbsp;&amp;nbsp;&amp;nbsp;&amp;nbsp;&amp;nbsp;&amp;nbsp; n" style="edgeStyle=orthogonalEdgeStyle;rounded=0;orthogonalLoop=1;jettySize=auto;html=1;entryX=0.484;entryY=1.005;entryDx=0;entryDy=0;entryPerimeter=0;labelPosition=center;verticalLabelPosition=top;align=center;verticalAlign=bottom;endArrow=none;endFill=0;" edge="1" parent="1" source="a-vMdIZ63alBC-uYgrp5-32" target="a-vMdIZ63alBC-uYgrp5-15">
          <mxGeometry relative="1" as="geometry" />
        </mxCell>
        <mxCell id="a-vMdIZ63alBC-uYgrp5-32" value="Activity" style="swimlane;fontStyle=1;align=center;verticalAlign=top;childLayout=stackLayout;horizontal=1;startSize=26;horizontalStack=0;resizeParent=1;resizeParentMax=0;resizeLast=0;collapsible=1;marginBottom=0;whiteSpace=wrap;html=1;" vertex="1" parent="1">
          <mxGeometry x="580" y="790" width="190" height="280" as="geometry" />
        </mxCell>
        <mxCell id="a-vMdIZ63alBC-uYgrp5-33" value="&lt;div&gt;- id: int&lt;/div&gt;&lt;div&gt;- sportChallengeID: int&lt;/div&gt;&lt;div&gt;- userID: int&lt;/div&gt;&lt;div&gt;- distance: float&lt;br&gt;&lt;/div&gt;" style="text;strokeColor=none;fillColor=none;align=left;verticalAlign=top;spacingLeft=4;spacingRight=4;overflow=hidden;rotatable=0;points=[[0,0.5],[1,0.5]];portConstraint=eastwest;whiteSpace=wrap;html=1;" vertex="1" parent="a-vMdIZ63alBC-uYgrp5-32">
          <mxGeometry y="26" width="190" height="64" as="geometry" />
        </mxCell>
        <mxCell id="a-vMdIZ63alBC-uYgrp5-34" value="" style="line;strokeWidth=1;fillColor=none;align=left;verticalAlign=middle;spacingTop=-1;spacingLeft=3;spacingRight=3;rotatable=0;labelPosition=right;points=[];portConstraint=eastwest;strokeColor=inherit;" vertex="1" parent="a-vMdIZ63alBC-uYgrp5-32">
          <mxGeometry y="90" width="190" height="8" as="geometry" />
        </mxCell>
        <mxCell id="a-vMdIZ63alBC-uYgrp5-35" value="&lt;div&gt;+getId(void): int&lt;/div&gt;&lt;div&gt;+ getSportsChallengeID(void): int&lt;/div&gt;&lt;div&gt;+ getUserID(void): int&lt;/div&gt;&lt;div&gt;+ getDistance(void): float&lt;/div&gt;&lt;div&gt;+ setId(int): void&lt;/div&gt;&lt;div&gt;+ setSportsChallengeID(int): void&lt;/div&gt;&lt;div&gt;+ setUserID(int): void&lt;br&gt;&lt;/div&gt;&lt;div&gt;+ setDistance(float): int&lt;/div&gt;" style="text;strokeColor=none;fillColor=none;align=left;verticalAlign=top;spacingLeft=4;spacingRight=4;overflow=hidden;rotatable=0;points=[[0,0.5],[1,0.5]];portConstraint=eastwest;whiteSpace=wrap;html=1;" vertex="1" parent="a-vMdIZ63alBC-uYgrp5-32">
          <mxGeometry y="98" width="190" height="182" as="geometry" />
        </mxCell>
        <mxCell id="a-vMdIZ63alBC-uYgrp5-44" value="&lt;div&gt;1&lt;/div&gt;&lt;div&gt;&lt;br&gt;&lt;/div&gt;&lt;div&gt;&lt;br&gt;&lt;/div&gt;&lt;div&gt;&lt;br&gt;&lt;/div&gt;&lt;div&gt;&lt;br&gt;&lt;/div&gt;&lt;div&gt;n&lt;br&gt;&lt;/div&gt;" style="edgeStyle=orthogonalEdgeStyle;rounded=0;orthogonalLoop=1;jettySize=auto;html=1;entryX=0;entryY=0.5;entryDx=0;entryDy=0;endArrow=none;endFill=0;labelPosition=right;verticalLabelPosition=middle;align=left;verticalAlign=middle;" edge="1" parent="1" source="a-vMdIZ63alBC-uYgrp5-21" target="a-vMdIZ63alBC-uYgrp5-13">
          <mxGeometry relative="1" as="geometry" />
        </mxCell>
        <mxCell id="a-vMdIZ63alBC-uYgrp5-49" value="&lt;div&gt;n&lt;/div&gt;&lt;div&gt;&lt;br&gt;&lt;/div&gt;&lt;div&gt;&lt;br&gt;&lt;/div&gt;&lt;div&gt;&lt;br&gt;&lt;/div&gt;&lt;div&gt;&lt;br&gt;&lt;/div&gt;&lt;div&gt;1&lt;/div&gt;" style="edgeStyle=orthogonalEdgeStyle;rounded=0;orthogonalLoop=1;jettySize=auto;html=1;entryX=0;entryY=0.5;entryDx=0;entryDy=0;endArrow=none;endFill=0;labelPosition=left;verticalLabelPosition=middle;align=right;verticalAlign=middle;" edge="1" parent="1" source="a-vMdIZ63alBC-uYgrp5-13" target="a-vMdIZ63alBC-uYgrp5-17">
          <mxGeometry relative="1" as="geometry" />
        </mxCell>
        <mxCell id="a-vMdIZ63alBC-uYgrp5-52" value="n&amp;nbsp;&amp;nbsp;&amp;nbsp;&amp;nbsp;&amp;nbsp;&amp;nbsp;&amp;nbsp;&amp;nbsp;&amp;nbsp;&amp;nbsp;&amp;nbsp;&amp;nbsp;&amp;nbsp;&amp;nbsp;&amp;nbsp;&amp;nbsp;&amp;nbsp;&amp;nbsp;&amp;nbsp; 1" style="edgeStyle=orthogonalEdgeStyle;rounded=0;orthogonalLoop=1;jettySize=auto;html=1;entryX=-0.007;entryY=0.576;entryDx=0;entryDy=0;entryPerimeter=0;endArrow=none;endFill=0;labelPosition=center;verticalLabelPosition=top;align=center;verticalAlign=bottom;" edge="1" parent="1" source="a-vMdIZ63alBC-uYgrp5-25" target="a-vMdIZ63alBC-uYgrp5-29">
          <mxGeometry relative="1" as="geometry" />
        </mxCell>
        <mxCell id="a-vMdIZ63alBC-uYgrp5-53" value="1&amp;nbsp;&amp;nbsp;&amp;nbsp;&amp;nbsp;&amp;nbsp;&amp;nbsp;&amp;nbsp;&amp;nbsp;&amp;nbsp;&amp;nbsp;&amp;nbsp;&amp;nbsp;&amp;nbsp;&amp;nbsp;&amp;nbsp;&amp;nbsp;&amp;nbsp; n" style="edgeStyle=orthogonalEdgeStyle;rounded=0;orthogonalLoop=1;jettySize=auto;html=1;entryX=0;entryY=0.5;entryDx=0;entryDy=0;endArrow=none;endFill=0;labelPosition=center;verticalLabelPosition=top;align=center;verticalAlign=bottom;" edge="1" parent="1" source="a-vMdIZ63alBC-uYgrp5-29" target="a-vMdIZ63alBC-uYgrp5-33">
          <mxGeometry relative="1" as="geometry" />
        </mxCell>
      </root>
    </mxGraphModel>
  </diagram>
</mxfile>
